<svg width="51" height="18" viewBox="0 0 51 18" fill="none" xmlns="http://www.w3.org/2000/svg">
<path d="M1.52588e-05 17.4609V0H5.493L8.31922 8.01588C8.43766 8.3876 8.57293 8.87125 8.72504 9.46681C8.87715 10.0624 9.0318 10.7038 9.18899 11.3911C9.34618 12.0784 9.49329 12.7458 9.63032 13.3933C9.76735 14.0408 9.88032 14.6045 9.96923 15.0843H9.2682C9.36069 14.6152 9.47441 14.0588 9.60933 13.4148C9.74425 12.7709 9.8903 12.1044 10.0475 11.4153C10.2047 10.7263 10.3592 10.0812 10.511 9.48029C10.6628 8.87933 10.7979 8.3912 10.9163 8.01588L13.7029 0H19.2076V17.4609H15.6176V9.22864C15.6176 8.84817 15.6238 8.37367 15.6361 7.80515C15.6485 7.23663 15.6637 6.62252 15.6817 5.96282C15.6998 5.30312 15.7168 4.63772 15.7327 3.96661C15.7486 3.29551 15.7584 2.66534 15.762 2.07612H15.9938C15.8424 2.72488 15.6759 3.39395 15.4945 4.08333C15.313 4.77272 15.1312 5.44257 14.9491 6.09289C14.767 6.74321 14.5936 7.33912 14.4289 7.88061C14.2642 8.42211 14.1229 8.87145 14.0051 9.22864L11.1154 17.4609H8.09957L5.16386 9.22864C5.04605 8.87504 4.90554 8.43019 4.74234 7.89409C4.57913 7.35799 4.40437 6.76657 4.21804 6.11984C4.03171 5.47311 3.84585 4.80326 3.66046 4.11028C3.47507 3.4173 3.29737 2.73925 3.12738 2.07612H3.40793C3.41512 2.64019 3.42668 3.25418 3.44262 3.9181C3.45855 4.58202 3.47465 5.24652 3.4909 5.91161C3.50715 6.5767 3.52234 7.198 3.53649 7.77551C3.55063 8.35301 3.5577 8.83739 3.5577 9.22864V17.4609H1.52588e-05ZM28.1424 17.7169C26.8283 17.7169 25.6913 17.4346 24.7314 16.87C23.7715 16.3053 23.032 15.5163 22.513 14.5028C21.9941 13.4893 21.7346 12.3106 21.7346 10.9669C21.7346 9.61234 21.9941 8.42742 22.513 7.41211C23.032 6.3968 23.7715 5.60684 24.7314 5.04223C25.6913 4.47762 26.8283 4.19531 28.1424 4.19531C29.4601 4.19531 30.5977 4.47762 31.5552 5.04223C32.5127 5.60684 33.2509 6.3968 33.7699 7.41211C34.2889 8.42742 34.5484 9.61234 34.5484 10.9669C34.5484 12.3106 34.2889 13.4893 33.7699 14.5028C33.2509 15.5163 32.5127 16.3053 31.5552 16.87C30.5977 17.4346 29.4601 17.7169 28.1424 17.7169ZM28.1424 14.9505C28.7679 14.9505 29.2909 14.7767 29.7114 14.429C30.1319 14.0814 30.4473 13.6059 30.6574 13.0026C30.8676 12.3994 30.9726 11.7166 30.9726 10.9542C30.9726 10.1841 30.8676 9.49872 30.6574 8.89819C30.4473 8.29765 30.1319 7.82477 29.7114 7.47954C29.2909 7.13432 28.7679 6.9617 28.1424 6.9617C27.5163 6.9617 26.9938 7.13432 26.5747 7.47954C26.1557 7.82477 25.8411 8.29675 25.6309 8.89549C25.4208 9.49423 25.3157 10.1805 25.3157 10.9542C25.3157 11.7166 25.4208 12.3994 25.6309 13.0026C25.8411 13.6059 26.1557 14.0814 26.5747 14.429C26.9938 14.7767 27.5163 14.9505 28.1424 14.9505ZM40.5118 0V17.4609H36.9975V0H40.5118ZM50.3636 4.35938V7.03741H42.5902V4.35938H50.3636ZM44.3944 1.24219H47.9087V13.6258C47.9087 14.043 48.0015 14.3505 48.1871 14.5483C48.3726 14.7461 48.6773 14.845 49.1012 14.845C49.2382 14.845 49.4272 14.8283 49.6679 14.795C49.9087 14.7616 50.0918 14.7293 50.2173 14.6981L50.7205 17.3337C50.3288 17.4498 49.9405 17.5305 49.5555 17.5759C49.1706 17.6213 48.8013 17.644 48.4477 17.644C47.1335 17.644 46.1294 17.3251 45.4354 16.6874C44.7414 16.0496 44.3944 15.1323 44.3944 13.9354V1.24219Z" fill="#111827"/>
</svg>
