<svg width="12" height="8" viewBox="0 0 12 8" fill="none" xmlns="http://www.w3.org/2000/svg">
<path d="M8.125 4.33384L10.9541 6.21993C11.0372 6.27522 11.144 6.28033 11.232 6.23322C11.32 6.18611 11.3749 6.09441 11.375 5.99459V1.55509C11.375 1.4581 11.3232 1.36849 11.2391 1.32017C11.155 1.27186 11.0514 1.27221 10.9677 1.32109L8.125 2.97968" stroke="white" stroke-width="1.08333" stroke-linecap="round" stroke-linejoin="round"/>
<path d="M1.62484 0.541992H7.0415C7.63941 0.541992 8.12484 1.02742 8.12484 1.62533V5.95866C8.12484 6.55657 7.63941 7.04199 7.0415 7.04199H1.62484C1.02693 7.04199 0.541504 6.55657 0.541504 5.95866V1.62533C0.541504 1.02742 1.02693 0.541992 1.62484 0.541992V0.541992" stroke="white" stroke-width="1.08333" stroke-linecap="round" stroke-linejoin="round"/>
</svg>
