<svg width="32" height="32" viewBox="0 0 32 32" fill="none" xmlns="http://www.w3.org/2000/svg">
<rect width="32" height="32" rx="8" fill="#0F1724"/>
<path d="M20.6633 16.64C21.0844 17.0611 21.6982 17.2256 22.2735 17.0714C22.8488 16.9173 23.2981 16.4679 23.4523 15.8927C23.6064 15.3174 23.4419 14.7036 23.0208 14.2825L21.5475 12.81C22.198 13.4603 23.2542 13.4601 23.9045 12.8095C24.5549 12.159 24.5547 11.1028 23.9041 10.4525L21.5475 8.0958C20.8967 7.44479 19.8414 7.44461 19.1904 8.09538C18.5394 8.74616 18.5392 9.80146 19.19 10.4525L17.7175 8.97913C17.0669 8.32856 16.0105 8.32856 15.36 8.97913C14.7094 9.6297 14.7094 10.6861 15.36 11.3366L20.6633 16.64M8.0833 23.9166L9.24996 22.75M22.75 9.24996L23.9166 8.0833M10.4525 23.9041C11.1028 24.5547 12.159 24.5549 12.8095 23.9045C13.4601 23.2542 13.4603 22.198 12.81 21.5475L14.2825 23.0208C14.933 23.6714 15.9894 23.6714 16.64 23.0208C17.2905 22.3702 17.2905 21.3139 16.64 20.6633L11.3366 15.36C10.6861 14.7094 9.6297 14.7094 8.97913 15.36C8.32856 16.0105 8.32856 17.0669 8.97913 17.7175L10.4525 19.19C9.80146 18.5392 8.74616 18.5394 8.09538 19.1904C7.44461 19.8414 7.44479 20.8967 8.0958 21.5475L8.0833 23.9166M14 18L18 14" stroke="white" stroke-width="1.66667" stroke-linecap="round" stroke-linejoin="round"/>
</svg>
