<svg width="40" height="40" viewBox="0 0 40 40" fill="none" xmlns="http://www.w3.org/2000/svg">
<rect width="40" height="40" rx="10" fill="#0EA5A4"/>
<path d="M25.13 20.7044C25.5933 21.1676 26.2684 21.3485 26.9012 21.179C27.534 21.0094 28.0283 20.5151 28.1979 19.8823C28.3674 19.2495 28.1865 18.5743 27.7233 18.1111L26.1026 16.4914C26.8187 17.2072 27.9795 17.207 28.6954 16.4909C29.4112 15.7748 29.411 14.614 28.6949 13.8981L26.1026 11.3058C25.3867 10.5897 24.2259 10.5895 23.5098 11.3053C22.7937 12.0212 22.7935 13.182 23.5094 13.8981L21.8896 12.2774C21.174 11.5618 20.012 11.5618 19.2964 12.2774C18.5807 12.9931 18.5807 14.1551 19.2964 14.8707L25.13 20.7044M11.292 28.7087L12.5754 27.4254M27.4254 12.5754L28.7087 11.292M13.8981 28.6949C14.6135 29.4106 15.7753 29.4108 16.4909 28.6954C17.2065 27.98 17.2067 26.8182 16.4914 26.1026L18.1111 27.7233C18.8267 28.4389 19.9887 28.4389 20.7044 27.7233C21.42 27.0076 21.42 25.8456 20.7044 25.13L14.8707 19.2964C14.1551 18.5807 12.9931 18.5807 12.2774 19.2964C11.5618 20.012 11.5618 21.174 12.2774 21.8896L13.8981 23.5094C13.182 22.7935 12.0212 22.7937 11.3053 23.5098C10.5895 24.2259 10.5897 25.3867 11.3058 26.1026L11.292 28.7087M17.8004 22.2004L22.2004 17.8004" stroke="white" stroke-width="1.83333" stroke-linecap="round" stroke-linejoin="round"/>
</svg>
