<svg width="78" height="38" viewBox="0 0 78 38" fill="none" xmlns="http://www.w3.org/2000/svg">
<path d="M6.13817 21.285V30H1.50559V14.7414H6.13817V16.276C6.97783 15.2915 8.3676 14.4229 10.3075 14.4229C12.1316 14.4229 13.6372 15.2047 14.5058 16.5076C15.3744 15.5521 16.88 14.4229 19.2252 14.4229C22.3233 14.4229 24.379 16.5945 24.379 19.9241V30H19.7464V21.256C19.7464 19.7215 19.1384 18.5923 17.6617 18.5923C16.4457 18.5923 15.2586 19.4898 15.2586 21.285V30H10.626V21.256C10.626 19.7215 10.0469 18.5923 8.54132 18.5923C7.32527 18.5923 6.13817 19.4898 6.13817 21.285ZM41.7686 22.3852C41.7686 27.1336 38.6126 30.3185 34.1248 30.3185C29.608 30.3185 26.481 27.1336 26.481 22.3852C26.481 17.6368 29.608 14.4229 34.1248 14.4229C38.6126 14.4229 41.7686 17.6368 41.7686 22.3852ZM31.0847 22.3852C31.0847 25.0489 32.2718 26.5545 34.1248 26.5545C35.9778 26.5545 37.1649 25.0489 37.1649 22.3852C37.1649 19.7215 35.9778 18.2159 34.1248 18.2159C32.2718 18.2159 31.0847 19.7215 31.0847 22.3852ZM48.579 9.21128V30H43.9464V9.21128H48.579ZM52.1301 25.9175V18.5633H50.1902V14.7414H52.1301V10.5142H56.7048V14.7414H59.687V18.5633H56.7048V24.7304C56.7048 26.0044 57.3707 26.236 58.5289 26.236C59.079 26.236 59.3396 26.2071 59.8608 26.1492V29.9421C59.0501 30.0579 58.1814 30.1448 57.0812 30.1448C53.7805 30.1448 52.1301 29.0445 52.1301 25.9175Z" fill="#110505"/>
<path d="M71.8271 8.23245L71.2937 13.166L76.2272 11.7526L76.6539 14.7394L72.0404 15.0861L75.0539 19.0863L72.3337 20.5263L70.227 16.2328L68.3336 20.5263L65.5334 19.0863L68.4936 15.0861L63.9334 14.7127L64.3867 11.7526L69.2403 13.166L68.7069 8.23245H71.8271Z" fill="#159945"/>
</svg>
