<svg width="64" height="64" viewBox="0 0 64 64" fill="none" xmlns="http://www.w3.org/2000/svg">
<rect width="64" height="64" rx="32" fill="#FFFBEB"/>
<path d="M42.6663 33.3333C42.6663 39.9999 37.9997 43.3333 32.453 45.2666C32.1626 45.365 31.8471 45.3603 31.5597 45.2533C25.9997 43.3333 21.333 39.9999 21.333 33.3333V23.9999C21.333 23.2641 21.9305 22.6666 22.6663 22.6666C25.333 22.6666 28.6663 21.0666 30.9863 19.0399C31.5699 18.5414 32.4294 18.5414 33.013 19.0399C35.3463 21.0799 38.6663 22.6666 41.333 22.6666C42.0689 22.6666 42.6663 23.2641 42.6663 23.9999V33.3333M31.9997 26.6666V31.9999M31.9997 37.3333H32.013" stroke="#92400E" stroke-width="2.66667" stroke-linecap="round" stroke-linejoin="round"/>
</svg>
