<?xml version="1.0" encoding="UTF-8"?><svg id="Layer_1" xmlns="http://www.w3.org/2000/svg" viewBox="312 432 580 328" preserveAspectRatio="xMidYMid meet"><defs><style>.cls-1{fill:#561c9b;}.cls-1,.cls-2{stroke-width:0px;}.cls-2{fill:#18ad99;}</style></defs><path class="cls-2" d="M366.25,724.14c.19-16.86,14.5-32.47,31.5-32.5,38.62-.09,38.52-.03,77.14-.03h-.02c37.71,0,73.38.03,111.11,0,20.47-.02,32.2-16.97,32.2-31.44.05-28.65,0-52.52,0-81.17,0-3.54.13-12.86,12.94-25.21,3.21-1.41,5.53-5.23,19.01-5.96,29.73-.16,51.8.38,81.53-.25,15.07,0,29.06,14.85,29.06,31.83-.2,30.11,0,49.61,0,79.74-.24,16.23-12.77,30.98-31.84,30.98-28.65.25-52.14,0-80.78.17-20.29.13-31.1,17.46-31.1,30.47,0,28.16.25,56.57,0,84.85,0,13.43-14.39,28.39-28.58,28.39-76.89.06-113.79.16-190.68,0-17.57,0-31.5-14.5-31.5-31.45"/><path class="cls-1" d="M833.75,475.86c-.19,16.86-14.5,32.47-31.5,32.5-38.62.09-38.52.03-77.14.03h.02c-37.71,0-73.38-.03-111.11,0-20.47.02-32.2,16.97-32.2,31.44-.05,28.65,0,52.52,0,81.17,0,3.54-.13,12.86-12.94,25.21-3.21,1.41-5.53,5.23-19.01,5.96-29.73.16-51.8-.38-81.53.25-15.07,0-29.06-14.85-29.06-31.83.2-30.11,0-49.61,0-79.74.24-16.23,12.77-30.98,31.84-30.98,28.65-.25,52.14,0,80.78-.17,20.29-.13,31.1-17.46,31.1-30.47,0-28.16-.25-56.57,0-84.85,0-13.43,14.39-28.39,28.58-28.39,76.89-.06,113.79-.16,190.68,0,17.57,0,31.5,14.5,31.5,31.45"/></svg>