<?xml version="1.0" encoding="UTF-8"?><svg id="Layer_1" xmlns="http://www.w3.org/2000/svg" viewBox="165 518 860 165" preserveAspectRatio="xMidYMid meet"><defs><style>.cls-1{fill:#561c9b;}.cls-1,.cls-2{stroke-width:0px;}.cls-2{fill:#18ad99;}</style></defs><path class="cls-1" d="M417.32,663.39c-5.57-2.75-9.76-5.88-12.58-9.39-2.82-3.5-4.22-6.32-4.22-8.45,0-1.13.44-2.04,1.31-2.73.87-.68,1.81-1.03,2.82-1.03h2.82c.87,0,1.59.16,2.16.47.57.31,1.22.97,1.97,1.97,2.75,3.88,6.1,6.92,10.05,9.1,3.94,2.19,9.36,3.29,16.24,3.29,7.76,0,14.02-1.47,18.77-4.41,4.76-2.94,7.14-7.16,7.14-12.67,0-3.38-.97-6.13-2.91-8.26-1.94-2.13-5.07-3.98-9.39-5.54-4.32-1.56-10.74-3.35-19.24-5.35-11.14-2.5-18.75-5.95-22.81-10.33-4.07-4.38-6.1-9.95-6.1-16.71,0-4.63,1.28-9.01,3.85-13.14s6.38-7.51,11.45-10.14c5.07-2.63,11.17-3.94,18.3-3.94,7.51,0,13.86,1.28,19.06,3.85,5.19,2.56,9.08,5.54,11.64,8.92,2.56,3.38,3.85,6.13,3.85,8.26,0,1.13-.41,2.04-1.22,2.73-.82.69-1.78,1.03-2.91,1.03h-2.82c-1.76,0-3.13-.81-4.13-2.44-2.5-3.75-5.35-6.6-8.54-8.54-3.19-1.94-8.17-2.91-14.93-2.91-7.26,0-12.77,1.5-16.52,4.5-3.75,3.01-5.63,6.94-5.63,11.83,0,3.01.75,5.51,2.25,7.51,1.5,2,4.32,3.85,8.45,5.54,4.13,1.69,10.14,3.41,18.02,5.16,11.64,2.63,19.83,6.13,24.6,10.51,4.76,4.38,7.13,10.2,7.13,17.46,0,5.13-1.44,9.83-4.32,14.08-2.88,4.26-7.13,7.63-12.77,10.14-5.63,2.5-12.39,3.75-20.28,3.75s-14.99-1.38-20.56-4.13h0Z"/><path class="cls-1" d="M495.61,665.49c-.75-.75-1.13-1.75-1.13-3.01v-125.89c0-1.25.38-2.25,1.13-3.01.75-.75,1.75-1.13,3.01-1.13h3.19c1.25,0,2.25.38,3.01,1.13.75.75,1.13,1.76,1.13,3.01v66.33l41.87-31.73c2-1.5,3.38-2.41,4.13-2.72.75-.31,2-.47,3.75-.47h3.57c1.13,0,2.03.34,2.72,1.03.69.69,1.03,1.59,1.03,2.73,0,1.38-.82,2.63-2.44,3.75l-47.5,36.05,53.07,47.44c1.63,1.5,2.44,2.76,2.44,3.75,0,1.13-.34,2.04-1.03,2.73s-1.59,1.03-2.73,1.03h-3.01c-1.87,0-3.25-.16-4.13-.47s-2.13-1.22-3.75-2.72l-48.01-42.75v41.9c0,1.25-.38,2.25-1.13,3.01-.75.75-1.76,1.13-3.01,1.13h-3.19c-1.25,0-2.25-.38-3.01-1.13h0Z"/><path class="cls-1" d="M574.19,546.8c-.75-.75-1.13-1.75-1.13-3.01v-7.01c0-1.25.38-2.28,1.13-3.1.75-.81,1.75-1.22,3.01-1.22h7.14c1.25,0,2.28.41,3.1,1.22.81.82,1.22,1.85,1.22,3.1v7.01c0,1.25-.41,2.25-1.22,3.01-.81.75-1.85,1.13-3.1,1.13h-7.14c-1.25,0-2.25-.38-3.01-1.13ZM576.26,665.5c-.75-.75-1.13-1.75-1.13-3.01v-90.35c0-1.25.38-2.25,1.13-3.01.75-.75,1.75-1.13,3.01-1.13h3.19c1.25,0,2.25.38,3.01,1.13.75.75,1.13,1.76,1.13,3.01v90.35c0,1.25-.38,2.25-1.13,3.01-.75.75-1.76,1.13-3.01,1.13h-3.19c-1.25,0-2.25-.38-3.01-1.13h0Z"/><path class="cls-1" d="M609.84,665.5c-.75-.75-1.13-1.75-1.13-3.01v-125.9c0-1.25.38-2.25,1.13-3.01.75-.75,1.75-1.13,3.01-1.13h3.19c1.25,0,2.25.38,3.01,1.13.75.75,1.13,1.76,1.13,3.01v125.9c0,1.25-.38,2.25-1.13,3.01-.75.75-1.76,1.13-3.01,1.13h-3.19c-1.25,0-2.25-.38-3.01-1.13h0Z"/><path class="cls-1" d="M648.54,665.5c-.75-.75-1.13-1.75-1.13-3.01v-125.9c0-1.25.38-2.25,1.13-3.01.75-.75,1.75-1.13,3.01-1.13h3.19c1.25,0,2.25.38,3.01,1.13.75.75,1.13,1.76,1.13,3.01v125.9c0,1.25-.38,2.25-1.13,3.01-.75.75-1.76,1.13-3.01,1.13h-3.19c-1.25,0-2.25-.38-3.01-1.13h0Z"/><path class="cls-1" d="M691.22,663.39c-5.57-2.75-9.76-5.88-12.58-9.39-2.82-3.5-4.22-6.32-4.22-8.45,0-1.13.44-2.04,1.31-2.73.87-.68,1.81-1.03,2.82-1.03h2.82c.87,0,1.59.16,2.16.47.57.31,1.22.97,1.97,1.97,2.75,3.88,6.1,6.92,10.05,9.1,3.94,2.19,9.36,3.29,16.24,3.29,7.76,0,14.02-1.47,18.77-4.41,4.76-2.94,7.14-7.16,7.14-12.67,0-3.38-.97-6.13-2.91-8.26-1.94-2.13-5.07-3.98-9.39-5.54-4.32-1.56-10.74-3.35-19.24-5.35-11.14-2.5-18.75-5.95-22.81-10.33-4.07-4.38-6.1-9.95-6.1-16.71,0-4.63,1.28-9.01,3.85-13.14,2.56-4.13,6.38-7.51,11.45-10.14,5.07-2.63,11.17-3.94,18.3-3.94,7.51,0,13.86,1.28,19.06,3.85,5.19,2.56,9.08,5.54,11.64,8.92,2.56,3.38,3.85,6.13,3.85,8.26,0,1.13-.41,2.04-1.22,2.73-.82.69-1.78,1.03-2.91,1.03h-2.82c-1.76,0-3.13-.81-4.13-2.44-2.5-3.75-5.35-6.6-8.54-8.54-3.19-1.94-8.17-2.91-14.93-2.91-7.26,0-12.77,1.5-16.52,4.5-3.75,3.01-5.63,6.94-5.63,11.83,0,3.01.75,5.51,2.25,7.51,1.5,2,4.32,3.85,8.45,5.54s10.14,3.41,18.02,5.16c11.64,2.63,19.83,6.13,24.6,10.51,4.76,4.38,7.13,10.2,7.13,17.46,0,5.13-1.44,9.83-4.32,14.08-2.88,4.26-7.13,7.63-12.77,10.14-5.63,2.5-12.39,3.75-20.28,3.75s-14.99-1.38-20.56-4.13h0Z"/><path class="cls-1" d="M768.64,655.88c-6.38-7.76-9.57-17.9-9.57-30.41v-53.32c0-1.25.38-2.25,1.13-3.01.75-.75,1.75-1.13,3.01-1.13h3.19c1.25,0,2.25.38,3.01,1.13.75.75,1.13,1.76,1.13,3.01v52.38c0,21.4,9.32,32.1,27.97,32.1,9.01,0,16.18-2.84,21.5-8.54,5.32-5.69,7.98-13.55,7.98-23.56v-52.38c0-1.25.38-2.25,1.13-3.01.75-.75,1.75-1.13,3.01-1.13h3.19c1.25,0,2.25.38,3.01,1.13s1.13,1.76,1.13,3.01v90.35c0,1.25-.38,2.25-1.13,3.01-.75.75-1.76,1.13-3.01,1.13h-3.19c-1.25,0-2.25-.38-3.01-1.13-.75-.75-1.13-1.75-1.13-3.01v-9.81c-3.75,4.88-8.04,8.58-12.86,11.08-4.82,2.5-10.98,3.75-18.49,3.75-12.27,0-21.59-3.88-27.97-11.64h0Z"/><path class="cls-1" d="M862.7,665.5c-.75-.75-1.13-1.75-1.13-3.01v-90.16c0-1.25.38-2.28,1.13-3.1.75-.81,1.75-1.22,3.01-1.22h3.01c1.25,0,2.28.41,3.1,1.22.81.82,1.22,1.85,1.22,3.1v8.63c4.51-8.63,13.02-12.95,25.53-12.95h6.94c1.25,0,2.25.38,3.01,1.13s1.13,1.76,1.13,3.01v2.63c0,1.25-.38,2.25-1.13,3.01-.75.75-1.76,1.13-3.01,1.13h-8.07c-7.51,0-13.46,2.19-17.84,6.57-4.38,4.38-6.57,10.33-6.57,17.84v59.19c0,1.25-.41,2.25-1.22,3.01-.82.75-1.85,1.13-3.1,1.13h-3.01c-1.25,0-2.25-.38-3.01-1.13h0Z"/><path class="cls-1" d="M929.69,655.79c-7.26-7.82-11.39-18.3-12.39-31.45l-.19-7.51.19-7.51c1-13.01,5.1-23.47,12.3-31.36,7.2-7.88,16.8-11.82,28.82-11.82,13.01,0,23.18,4.32,30.51,12.95,7.32,8.63,10.98,20.46,10.98,35.48v2.82c0,1.25-.41,2.25-1.22,3.01-.82.75-1.85,1.13-3.1,1.13h-66.84v1.87c.25,5.88,1.59,11.36,4.03,16.43,2.44,5.07,5.85,9.14,10.23,12.2,4.38,3.07,9.51,4.6,15.39,4.6,6.88,0,12.49-1.34,16.8-4.03,4.32-2.69,7.42-5.41,9.29-8.17,1.13-1.5,1.97-2.44,2.53-2.82.57-.38,1.59-.57,3.1-.57h3.01c1.13,0,2.07.31,2.82.94.75.63,1.13,1.44,1.13,2.44,0,2.63-1.66,5.79-4.98,9.48-3.32,3.69-7.92,6.88-13.8,9.57-5.88,2.69-12.52,4.03-19.9,4.03-11.89,0-21.47-3.91-28.73-11.73h0ZM988.46,611.01v-.75c0-9.64-2.73-17.58-8.17-23.84-5.45-6.25-12.74-9.39-21.87-9.39s-16.36,3.13-21.69,9.39c-5.32,6.26-7.98,14.2-7.98,23.84v.75h59.7,0Z"/><path class="cls-2" d="M200.09,635.01c.05-4.81,4.14-9.27,8.99-9.27,11.02-.03,10.99,0,22.01,0h0c10.76,0,20.94,0,31.71,0,5.84,0,9.19-4.84,9.19-8.97.01-8.17,0-14.99,0-23.16,0-1.01.04-3.67,3.69-7.19.91-.4,1.58-1.49,5.42-1.7,8.48-.04,14.78.11,23.26-.07,4.3,0,8.29,4.24,8.29,9.08-.06,8.59,0,14.16,0,22.75-.07,4.63-3.64,8.84-9.08,8.84-8.17.07-14.88,0-23.05.05-5.79.04-8.87,4.98-8.87,8.69,0,8.03.07,16.14,0,24.21,0,3.83-4.11,8.1-8.16,8.1-21.94.02-32.47.04-54.41,0-5.01,0-8.99-4.14-8.99-8.98"/><path class="cls-1" d="M333.49,564.16c-.05,4.81-4.14,9.27-8.99,9.27-11.02.03-10.99,0-22.01,0h0c-10.76,0-20.94,0-31.71,0-5.84,0-9.19,4.84-9.19,8.97-.01,8.17,0,14.99,0,23.16,0,1.01-.04,3.67-3.69,7.19-.91.4-1.58,1.49-5.42,1.7-8.48.04-14.78-.11-23.26.07-4.3,0-8.29-4.24-8.29-9.08.06-8.59,0-14.16,0-22.75.07-4.63,3.64-8.84,9.08-8.84,8.17-.07,14.88,0,23.05-.05,5.79-.04,8.87-4.98,8.87-8.69,0-8.03-.07-16.14,0-24.21,0-3.83,4.11-8.1,8.16-8.1,21.94-.02,32.47-.04,54.41,0,5.01,0,8.99,4.14,8.99,8.98"/></svg>